<svg width="74" height="74" viewBox="0 0 74 74" fill="none" xmlns="http://www.w3.org/2000/svg">
<path d="M23.5713 30.6576L39.0184 15.21L55.7895 31.9805L40.3425 47.4281L23.5713 30.6576Z" fill="#FDAD3E"/>
<path d="M55.0734 31.2694L49.863 36.4797L41.5452 44.7975L39.6302 46.7125H41.0611L35.3593 41.0108L26.3478 31.9992L24.2882 29.9397V31.3705L29.4986 26.1602L37.8163 17.8424L39.7314 15.9274H38.3005L44.0023 21.6291L53.0138 30.6407L55.0734 32.7002C55.9984 33.6252 57.4292 32.1944 56.5042 31.2694L50.8025 25.5676L41.7909 16.5561L39.7314 14.4965C39.3484 14.1135 38.6908 14.1063 38.3005 14.4965L33.0902 19.7069L24.7724 28.0246L22.8574 29.9397C22.4743 30.3227 22.4671 30.9803 22.8574 31.3705L28.5591 37.0723L37.5706 46.0838L39.6302 48.1434C40.0132 48.5264 40.6708 48.5336 41.0611 48.1434L46.2714 42.933L54.5892 34.6153L56.5042 32.7002C57.4292 31.7825 55.9984 30.3516 55.0734 31.2694ZM47.2181 55.1748C45.8884 56.5045 43.7277 56.5045 42.398 55.1748C41.0683 53.8451 41.0683 51.6844 42.398 50.3547L58.7083 34.0444C60.038 32.7147 62.1988 32.7147 63.5285 34.0444C64.8581 35.3741 64.8581 37.5348 63.5285 38.8645L47.2181 55.1748Z" fill="#FDAD3E"/>
<path d="M46.5027 54.4595C46.4449 54.5173 46.2787 54.6618 46.2932 54.6546C46.3654 54.604 46.2281 54.698 46.2281 54.698L46.0547 54.8064C45.968 54.8569 45.8812 54.9075 45.7873 54.9509C45.7656 54.9653 45.6066 55.0231 45.7512 54.9653C45.6861 54.987 45.6283 55.0087 45.5633 55.0304C45.4549 55.0665 45.3393 55.0954 45.2236 55.1171C45.173 55.1243 45.1297 55.1388 45.0791 55.146C45.1297 55.1388 45.2525 55.1388 45.0502 55.146C44.949 55.146 44.8551 55.1532 44.7539 55.1532C44.6889 55.1532 44.3637 55.1171 44.5299 55.146C43.9951 55.0665 43.8217 54.9798 43.3881 54.6907C43.3014 54.6329 43.1568 54.5028 43.0051 54.3294C42.9906 54.3149 42.8533 54.1487 42.9184 54.2282C42.9762 54.3005 42.875 54.1632 42.875 54.1632C42.8027 54.0476 42.7305 53.9319 42.6654 53.8163C42.5209 53.5489 42.4197 53.1009 42.4197 52.7974C42.4197 52.6817 42.427 52.5661 42.4342 52.4505C42.4414 52.3276 42.4342 52.4505 42.427 52.4722C42.4342 52.4216 42.4414 52.371 42.4559 52.3276C42.4775 52.212 42.5064 52.1036 42.5426 51.988C42.557 51.9374 42.5715 51.8941 42.5932 51.8435C42.6148 51.7784 42.6148 51.7784 42.5859 51.8507C42.6004 51.8218 42.6148 51.7929 42.6293 51.7567C42.7088 51.5978 42.8678 51.3304 42.9328 51.2509C42.9256 51.2581 43.0773 51.0919 43.1352 51.0341L43.2002 50.969L46.0836 48.0857L51.3879 42.7814L56.6705 37.4987C57.5811 36.5882 58.4916 35.6704 59.4021 34.7671C59.4311 34.7454 59.4527 34.7165 59.4816 34.6948C59.7418 34.4419 60.1176 34.2323 60.4283 34.1384C60.5223 34.1095 60.6162 34.0878 60.7174 34.0661C60.7463 34.0589 60.9486 34.03 60.8258 34.0444C60.7174 34.0589 60.8836 34.0444 60.8908 34.0444C61.0064 34.0372 61.1221 34.0372 61.2377 34.0372C61.2883 34.0372 61.3389 34.0444 61.3822 34.0444C61.5701 34.0517 61.3461 34.03 61.4545 34.0517C61.6641 34.0878 61.8736 34.1456 62.076 34.2251C61.9387 34.1745 62.2061 34.2901 62.2422 34.3118C62.365 34.3769 62.4807 34.4491 62.5891 34.5286C62.683 34.5937 62.6107 34.5431 62.5891 34.5286C62.6324 34.5647 62.6686 34.5937 62.7047 34.6298C62.7986 34.7165 62.8781 34.8032 62.9648 34.8899C62.9648 34.8899 63.0732 35.02 63.0154 34.9478C62.9504 34.8683 63.0805 35.0345 63.0877 35.0562C63.1527 35.1573 63.2178 35.2585 63.2684 35.3597C63.4201 35.6487 63.5141 36.0462 63.5141 36.3786C63.5141 36.4942 63.5068 36.6099 63.4996 36.7255C63.4852 36.8917 63.5285 36.5882 63.4996 36.7472C63.4924 36.7978 63.4852 36.8411 63.4707 36.8917C63.449 37.0073 63.4129 37.1157 63.3768 37.2241C63.3623 37.2747 63.3479 37.3181 63.3262 37.3687C63.3623 37.2675 63.3334 37.3542 63.3117 37.4048C63.2611 37.5132 63.2033 37.6144 63.1383 37.7155C63.1166 37.7517 62.9359 37.9974 63.0227 37.889C62.9576 37.9685 62.8781 38.048 62.8059 38.1274C62.0182 38.9368 61.2016 39.7317 60.3994 40.5339L55.2397 45.6937L49.8197 51.1136L46.6545 54.2788C46.6039 54.3511 46.5533 54.4017 46.5027 54.4595C45.5777 55.3845 47.0086 56.8153 47.9336 55.8903L50.3617 53.4622L55.76 48.064C57.6172 46.2067 59.4744 44.3495 61.3316 42.4851C62.2928 41.5239 63.2539 40.57 64.2078 39.6089C65.5375 38.2647 65.8771 36.3064 65.1184 34.5864C64.1428 32.3751 61.4545 31.4862 59.301 32.4257C58.6289 32.722 58.1158 33.1989 57.6027 33.712L56.0707 35.244L50.882 40.4327L45.1947 46.12L41.8271 49.4876C40.9166 50.3981 40.3313 51.5905 40.3891 52.913C40.4902 55.2833 42.5064 57.2489 44.9057 57.1839C46.0475 57.1478 47.117 56.6853 47.9336 55.8903C48.3238 55.5073 48.3166 54.8425 47.9336 54.4595C47.5434 54.062 46.9002 54.0765 46.5027 54.4595ZM20.6533 28.6028C19.3236 29.9325 17.1629 29.9325 15.8332 28.6028C14.5035 27.2731 14.5035 25.1124 15.8332 23.7827L32.1436 7.47236C33.4732 6.14268 35.634 6.14268 36.9637 7.47236C38.2934 8.80205 38.2934 10.9628 36.9637 12.2925L20.6533 28.6028Z" fill="#FDAD3E"/>
<path d="M19.9379 27.8874C19.8801 27.9452 19.7139 28.0897 19.7283 28.0825C19.8006 28.0319 19.6633 28.1259 19.6633 28.1259L19.4899 28.2343C19.4031 28.2849 19.3164 28.3355 19.2225 28.3788C19.2008 28.3933 19.0418 28.4511 19.1863 28.3933C19.1213 28.4149 19.0635 28.4366 18.9985 28.4583C18.8901 28.4944 18.7744 28.5233 18.6588 28.545C18.6082 28.5522 18.5649 28.5667 18.5143 28.5739C18.5649 28.5667 18.6877 28.5667 18.4854 28.5739C18.3842 28.5739 18.2903 28.5812 18.1891 28.5812C18.124 28.5812 17.7988 28.545 17.9651 28.5739C17.4303 28.4944 17.2569 28.4077 16.8233 28.1187C16.7365 28.0608 16.592 27.9308 16.4403 27.7573C16.4258 27.7429 16.2885 27.5767 16.3535 27.6562C16.4113 27.7284 16.3102 27.5911 16.3102 27.5911C16.2379 27.4755 16.1656 27.3599 16.1006 27.2442C15.9561 26.9769 15.8549 26.5288 15.8549 26.2253C15.8549 26.1097 15.8621 25.994 15.8694 25.8784C15.8766 25.7556 15.8694 25.8784 15.8621 25.9001C15.8694 25.8495 15.8766 25.7989 15.891 25.7556C15.9127 25.6399 15.9416 25.5315 15.9778 25.4159C15.9922 25.3653 16.0067 25.322 16.0283 25.2714C16.05 25.2064 16.05 25.2064 16.0211 25.2786C16.0356 25.2497 16.05 25.2208 16.0645 25.1847C16.144 25.0257 16.303 24.7583 16.368 24.6788C16.3608 24.686 16.5125 24.5198 16.5703 24.462L16.6354 24.397L19.5188 21.5136L24.8231 16.2093L30.1057 10.9267C31.0162 10.0161 31.9268 9.09834 32.8373 8.19502C32.8662 8.17334 32.8879 8.14444 32.9168 8.12276C33.177 7.86983 33.5528 7.66026 33.8635 7.56631C33.9574 7.53741 34.0514 7.51573 34.1526 7.49405C34.1815 7.48682 34.3838 7.45791 34.261 7.47237C34.1526 7.48682 34.3188 7.47237 34.326 7.47237C34.4416 7.46514 34.5572 7.46514 34.6729 7.46514C34.7235 7.46514 34.774 7.47237 34.8174 7.47237C35.0053 7.47959 34.7813 7.45791 34.8897 7.47959C35.0992 7.51573 35.3088 7.57354 35.5112 7.65303C35.3738 7.60245 35.6412 7.71807 35.6774 7.73975C35.8002 7.80479 35.9158 7.87705 36.0242 7.95655C36.1182 8.02159 36.0459 7.971 36.0242 7.95655C36.0676 7.99268 36.1037 8.02159 36.1399 8.05772C36.2338 8.14444 36.3133 8.23116 36.4 8.31787C36.4 8.31787 36.5084 8.44795 36.4506 8.37569C36.3856 8.2962 36.5156 8.46241 36.5229 8.48409C36.5879 8.58526 36.6529 8.68643 36.7035 8.7876C36.8553 9.07666 36.9492 9.47412 36.9492 9.80655C36.9492 9.92217 36.942 10.0378 36.9348 10.1534C36.9203 10.3196 36.9637 10.0161 36.9348 10.1751C36.9276 10.2257 36.9203 10.269 36.9059 10.3196C36.8842 10.4353 36.8481 10.5437 36.8119 10.6521C36.7975 10.7026 36.783 10.746 36.7613 10.7966C36.7975 10.6954 36.7686 10.7821 36.7469 10.8327C36.6963 10.9411 36.6385 11.0423 36.5735 11.1435C36.5518 11.1796 36.3711 11.4253 36.4578 11.3169C36.3928 11.3964 36.3133 11.4759 36.241 11.5554C35.4533 12.3647 34.6367 13.1597 33.8346 13.9618L28.6748 19.1216L23.2549 24.5415L20.0897 27.7067C20.0391 27.7862 19.9885 27.8368 19.9379 27.8874C19.0129 28.8124 20.4438 30.2433 21.3688 29.3183L23.7969 26.8901L29.1951 21.4919C31.0524 19.6347 32.9096 17.7774 34.7668 15.913C35.728 14.9519 36.6891 13.998 37.643 13.0368C38.9727 11.6927 39.3123 9.73428 38.5535 8.01436C37.5779 5.81748 34.8969 4.92139 32.7362 5.86084C32.0641 6.15713 31.551 6.63409 31.0379 7.14717L29.5059 8.6792L24.3172 13.8679L18.6299 19.5552L15.2623 22.9228C14.3518 23.8333 13.7664 25.0257 13.8242 26.3481C13.9254 28.7185 15.9344 30.6841 18.3408 30.619C19.4826 30.5829 20.5522 30.1204 21.3688 29.3255C21.759 28.9425 21.7518 28.2776 21.3688 27.8946C20.9785 27.4972 20.3281 27.5116 19.9379 27.8874ZM50.9037 23.6815L49.191 25.3942L45.6067 21.8099L47.3194 20.0972C48.3094 19.1071 49.9065 19.0999 50.8965 20.0899C51.3879 20.5814 51.6408 21.239 51.6408 21.8821C51.6481 22.5325 51.4024 23.1901 50.9037 23.6815Z" fill="#FDAD3E"/>
<path d="M50.1881 22.9659L48.4754 24.6786H49.9062L46.3219 21.0943V22.5251L47.3047 21.5423L47.8973 20.9497C48.0779 20.7691 48.1719 20.6751 48.3309 20.5812C48.3453 20.5739 48.6055 20.4366 48.4537 20.5017C48.5766 20.4439 48.7066 20.4222 48.8367 20.3861C49.0463 20.321 48.7572 20.3716 48.9596 20.3644C49.0897 20.3644 49.227 20.3571 49.357 20.3716C49.1619 20.3499 49.4654 20.4005 49.4799 20.4077C49.5232 20.4222 49.8484 20.5523 49.7111 20.48C49.9568 20.6028 50.0291 20.6534 50.1809 20.8052C50.7951 21.4195 50.7807 22.3517 50.1881 22.9659C49.8123 23.3634 49.7979 24.0066 50.1881 24.3968C50.5711 24.7798 51.2432 24.7943 51.6189 24.3968C52.4861 23.4862 52.8547 22.2144 52.5367 20.9931C52.2404 19.8224 51.3371 18.9046 50.2098 18.5144C49.227 18.1747 48.0346 18.3337 47.1746 18.9191C46.7266 19.2298 46.358 19.6273 45.975 20.0103L44.8982 21.087C44.5152 21.47 44.508 22.1277 44.8982 22.5179L48.4826 26.1023C48.8656 26.4853 49.5232 26.4925 49.9135 26.1023L51.6262 24.3896C52.5439 23.4718 51.1131 22.0409 50.1881 22.9659ZM30.1705 37.2529L33.7549 40.8372L7.8043 66.7878C6.81426 67.7779 5.20273 67.7706 4.2127 66.7806C3.72129 66.2892 3.47559 65.6388 3.47559 64.9956C3.47559 64.3452 3.72852 63.7021 4.21992 63.2107L30.1705 37.2529Z" fill="#FDAD3E"/>
<path d="M29.4555 37.9685L33.0398 41.5528V40.122L30.2576 42.9042L23.6525 49.5093L15.8478 57.314L9.48125 63.6806L7.63125 65.5306L7.19043 65.9714L7.10371 66.0581C7.05312 66.1087 7.00254 66.1593 6.94472 66.2026C7.06035 66.1087 6.89414 66.2315 6.86523 66.2532C6.79297 66.2966 6.7207 66.3399 6.64844 66.3761C6.46777 66.47 6.57617 66.405 6.61953 66.3905C6.52558 66.4194 6.43164 66.4411 6.33769 66.47C6.07754 66.5567 6.49668 66.4772 6.22207 66.4917C6.15703 66.4917 6.09199 66.4989 6.02695 66.4989C5.96191 66.4989 5.89687 66.4917 5.83183 66.4917C6.01972 66.5061 5.81015 66.4917 5.75957 66.4772C5.68008 66.4628 5.60058 66.4339 5.52109 66.4122C5.34765 66.3688 5.43437 66.3833 5.48496 66.405C5.40547 66.3761 5.3332 66.3327 5.26094 66.2894C5.2248 66.2677 4.9791 66.087 5.09472 66.181C4.9791 66.087 4.86347 65.9786 4.77676 65.8558C4.84902 65.9497 4.64668 65.6317 4.66836 65.6679C4.66836 65.6679 4.58164 65.5017 4.625 65.5956C4.57441 65.48 4.50937 65.2271 4.50215 65.1765C4.5166 65.2921 4.49492 64.9308 4.49492 64.9669C4.49492 64.9669 4.52383 64.6562 4.50215 64.779C4.57441 64.3454 4.74062 64.0997 5.05137 63.789L6.29433 62.546L11.9527 56.8876L19.6562 49.1841L26.7672 42.0731L30.7129 38.1274L30.9008 37.9395C31.8258 37.0145 30.3949 35.5837 29.4699 36.5087L26.601 39.3776L19.8586 46.12L11.9383 54.0403L5.62226 60.3563L3.90957 62.069L3.56269 62.4159C2.73164 63.2614 2.36308 64.3888 2.55097 65.5595C2.81836 67.236 4.35762 68.4862 6.0414 68.4935C7.00254 68.4935 7.91308 68.096 8.59238 67.4239C8.95371 67.0698 9.30781 66.7085 9.66191 66.3544L15.1902 60.8261L22.9805 53.0358L30.2721 45.7442L34.3117 41.7046L34.4996 41.5167C34.8826 41.1337 34.8898 40.4761 34.4996 40.0858L30.9152 36.5015C29.9613 35.6198 28.5305 37.0507 29.4555 37.9685ZM24.6137 67.4962C24.6137 63.8106 27.6271 60.7755 31.3416 60.7755H63.7816C67.4961 60.7755 70.5096 63.8106 70.5096 67.4962H24.6137Z" fill="#FDAD3E"/>
<path d="M25.6255 67.496C25.6255 67.3153 25.6327 67.1274 25.6472 66.9468C25.6544 66.8673 25.6616 66.7806 25.6688 66.7011C25.6399 66.9179 25.6905 66.5999 25.6905 66.5782C25.7555 66.2313 25.8423 65.8845 25.9579 65.552C25.9868 65.4798 26.0157 65.4003 26.0374 65.328C26.1024 65.1546 25.9362 65.5376 26.0663 65.263C26.1313 65.1185 26.2036 64.9739 26.2759 64.8366C26.4421 64.5331 26.6227 64.2368 26.8323 63.9622C26.7095 64.1284 26.8973 63.8827 26.9118 63.8755L27.0636 63.7021C27.1792 63.572 27.302 63.4491 27.4249 63.3335C27.5405 63.2251 27.6561 63.1239 27.779 63.0228C28.003 62.8276 27.6923 63.0878 27.8368 62.9794C27.9235 62.9144 28.0175 62.8493 28.1042 62.7915C28.3643 62.6181 28.6389 62.4591 28.9208 62.3218C29.0075 62.2784 29.0942 62.2423 29.1809 62.2062C29.022 62.2712 29.1737 62.2134 29.2026 62.1989C29.3833 62.1339 29.5639 62.0688 29.7518 62.0183C29.9397 61.9677 30.1276 61.9171 30.3155 61.881C30.3805 61.8665 30.4456 61.8593 30.5106 61.8448C30.8214 61.787 30.3155 61.8593 30.6335 61.8304C30.8647 61.8087 31.1032 61.7942 31.3345 61.7942H63.7673C64.0057 61.7942 64.237 61.8087 64.4682 61.8304C64.7862 61.852 64.2804 61.787 64.5911 61.8448C64.6561 61.8593 64.7212 61.8665 64.7862 61.881C64.9741 61.9171 65.1692 61.9604 65.3499 62.0183C65.7618 62.1339 65.9208 62.1989 66.1809 62.3218C66.4917 62.4735 66.7952 62.647 67.077 62.8421L67.2288 62.9505C67.4745 63.1239 67.0915 62.8276 67.3227 63.0228C67.4384 63.1239 67.5612 63.2251 67.6768 63.3335C67.7925 63.4419 67.9009 63.5503 68.0093 63.6659C68.0743 63.7382 68.1321 63.8032 68.1972 63.8755C68.2261 63.9044 68.3778 64.0995 68.2766 63.9622C68.4862 64.2368 68.6741 64.5331 68.8331 64.8366C68.9054 64.9739 68.9776 65.1185 69.0427 65.263C69.1294 65.4437 69.0643 65.3208 69.0499 65.2847C69.0932 65.4003 69.1438 65.5231 69.18 65.646C69.2811 65.9495 69.3606 66.2675 69.4184 66.5855C69.4184 66.5999 69.4618 66.9179 69.4401 66.7083L69.4618 66.9034C69.4763 67.1058 69.4835 67.3009 69.4907 67.5032L70.5024 66.4915H30.2649C28.4077 66.4915 26.5432 66.4481 24.6932 66.4915H24.6138C24.0645 66.4915 23.602 66.954 23.602 67.5032C23.602 68.0524 24.0645 68.5149 24.6138 68.5149H64.8513C66.7085 68.5149 68.5729 68.5583 70.4229 68.5149H70.5024C71.0444 68.5149 71.5214 68.0524 71.5141 67.5032C71.4925 64.2946 69.5052 61.4474 66.5278 60.2767C65.4005 59.8286 64.2153 59.7636 63.0229 59.7636H32.6714C32.0282 59.7636 31.3706 59.7347 30.7274 59.7925C27.5911 60.0671 24.8956 62.1917 23.9417 65.198C23.7104 65.9351 23.5948 66.73 23.5948 67.5032C23.5876 68.0524 24.0645 68.5149 24.6065 68.5149C25.163 68.5077 25.6182 68.0452 25.6255 67.496Z" fill="#FDAD3E"/>
</svg>
