<svg width="74" height="74" viewBox="0 0 74 74" fill="none" xmlns="http://www.w3.org/2000/svg">
<path d="M5.32701 5.60615C5.01723 4.36714 3.76166 3.61382 2.52264 3.92361C1.28362 4.23342 0.530328 5.48895 0.840114 6.72799L4.08331 19.6995L7.10128 32.2919C8.38457 37.6461 9.39463 41.8607 10.5933 45.1349C11.8228 48.4936 13.3306 51.1009 15.7497 53.1004C15.9584 53.2728 16.1711 53.4405 16.3876 53.6033C18.8957 55.49 21.7827 56.3484 25.3353 56.7612C28.7986 57.1639 33.1324 57.1639 38.6383 57.1636H40.4686C45.2323 57.1639 48.9823 57.1639 52.0033 56.8584C55.0977 56.5454 57.644 55.8961 59.9352 54.4614C61.0221 53.7809 62.0319 52.9845 62.947 52.0863C64.7535 50.3128 65.944 48.1591 66.93 45.4796H52.4171C51.14 45.4796 50.1046 44.4443 50.1046 43.1671C50.1046 41.89 51.14 40.8546 52.4171 40.8546H68.3576C68.7344 39.4533 69.1158 37.9156 69.524 36.2296H43.1671C41.89 36.2296 40.8546 35.1943 40.8546 33.9171C40.8546 32.64 41.89 31.6046 43.1671 31.6046H70.6316C71.0895 29.6519 71.4487 27.9769 71.6112 26.5557C71.8322 24.62 71.7419 22.7769 70.7759 21.0941C70.3624 20.3743 69.8456 19.7191 69.2422 19.1495C67.831 17.8176 66.0596 17.3002 64.1254 17.0643C62.2622 16.8369 59.8948 16.8369 57.0224 16.837H8.135L5.32701 5.60615ZM29.0488 67.8338C30.8412 67.8338 32.2943 66.3806 32.2943 64.588C32.2943 62.7956 30.8412 61.3425 29.0488 61.3425C27.2563 61.3425 25.8031 62.7956 25.8031 64.588C25.8031 66.3806 27.2563 67.8338 29.0488 67.8338ZM48.5225 67.8338C50.3149 67.8338 51.7681 66.3806 51.7681 64.588C51.7681 62.7956 50.3149 61.3425 48.5225 61.3425C46.7299 61.3425 45.2767 62.7956 45.2767 64.588C45.2767 66.3806 46.7299 67.8338 48.5225 67.8338Z" fill="#FDAD3E"/>
</svg>
