<svg width="74" height="74" viewBox="0 0 74 74" fill="none" xmlns="http://www.w3.org/2000/svg">
<path d="M25.2133 55.7956L5.64468 65.745C5.53451 65.801 5.41181 65.8279 5.28832 65.8229C5.16483 65.818 5.04467 65.7815 4.93931 65.7168C4.83396 65.6522 4.74695 65.5617 4.68658 65.4538C4.62622 65.346 4.59452 65.2244 4.59452 65.1009V24.6292C4.59452 24.4951 4.63186 24.3636 4.70237 24.2494C4.77287 24.1353 4.87375 24.0431 4.99371 23.983L25.2385 13.8501L25.2401 11.2974L3.5101 22.1736C3.14936 22.3527 2.84597 22.6292 2.63431 22.9718C2.42265 23.3144 2.31117 23.7095 2.31251 24.1122V66.4649C2.31249 66.8358 2.40758 67.2004 2.58869 67.5239C2.76981 67.8475 3.03089 68.1192 3.34698 68.3131C3.66308 68.507 4.02362 68.6165 4.39414 68.6313C4.76466 68.6461 5.13277 68.5656 5.46329 68.3975L25.2119 58.3566L25.2133 55.7956Z" fill="#FDAD3E"/>
<path d="M14.0084 37.0913C14.5446 37.0893 15.0682 36.9285 15.513 36.6291C15.9578 36.3298 16.304 35.9054 16.5078 35.4094C16.7116 34.9135 16.7639 34.3683 16.6581 33.8426C16.5522 33.317 16.293 32.8345 15.9132 32.4561C15.5333 32.0777 15.0498 31.8203 14.5238 31.7164C13.9978 31.6126 13.4528 31.6669 12.9576 31.8726C12.4624 32.0782 12.0393 32.426 11.7416 32.872C11.444 33.318 11.2851 33.8421 11.2852 34.3783C11.2874 35.0989 11.5753 35.7893 12.0859 36.2979C12.5964 36.8065 13.2878 37.0918 14.0084 37.0913Z" fill="#FDAD3E"/>
<path d="M25.2146 54.1737L25.2377 15.4668L6.04004 25.0762V63.9226L25.2146 54.1737ZM6.75634 34.099C6.87476 32.2579 7.65756 30.5223 8.95928 29.2149C9.63028 28.5434 10.427 28.0107 11.304 27.6473C12.1809 27.2838 13.1209 27.0968 14.0702 27.0968C15.0195 27.0968 15.9595 27.2838 16.8364 27.6473C17.7134 28.0107 18.5101 28.5434 19.1811 29.2149C20.4768 30.5021 21.2587 32.2176 21.3801 34.04C21.5016 35.8623 20.9544 37.6665 19.841 39.1143L14.6482 46.0356C14.5809 46.1253 14.4936 46.1982 14.3932 46.2484C14.2929 46.2985 14.1822 46.3247 14.0701 46.3247C13.9579 46.3247 13.8472 46.2985 13.7469 46.2484C13.6465 46.1982 13.5592 46.1253 13.4919 46.0356L8.29444 39.1082C7.18675 37.5934 6.6423 35.8169 6.75634 34.099Z" fill="#FDAD3E"/>
<path d="M14.0699 44.3979L18.6894 38.2408C19.5784 37.0832 20.0225 35.645 19.941 34.1876C19.7606 31.4156 17.5149 28.5421 14.0699 28.5421C10.6248 28.5421 8.37952 31.4158 8.19827 34.194C8.10664 35.5744 8.55324 37.0138 9.4557 38.2479L14.0699 44.3979ZM14.0086 30.2194C14.8306 30.2214 15.6336 30.4669 16.3161 30.9251C16.9986 31.3832 17.5301 32.0334 17.8433 32.7934C18.1565 33.5535 18.2374 34.3893 18.0758 35.1953C17.9142 36.0013 17.5173 36.7413 16.9354 37.3218C16.3534 37.9024 15.6124 38.2974 14.806 38.4571C13.9996 38.6167 13.164 38.5338 12.4048 38.2187C11.6455 37.9037 10.9966 37.3707 10.5401 36.6871C10.0836 36.0034 9.84001 35.1998 9.84001 34.3778C9.8428 33.2741 10.2832 32.2165 11.0647 31.4371C11.8462 30.6577 12.9049 30.22 14.0086 30.2201V30.2194ZM67.9601 16.2266L48.4194 26.0028L48.39 64.8947L67.9595 55.1042L67.9601 16.2266ZM65.3534 31.9641L61.1054 37.6269C61.0381 37.7166 60.9508 37.7895 60.8504 37.8396C60.7501 37.8898 60.6394 37.9159 60.5273 37.9159C60.4151 37.9159 60.3044 37.8898 60.2041 37.8396C60.1037 37.7895 60.0164 37.7166 59.9491 37.6269L55.6966 31.9581C54.7909 30.7608 54.336 29.2826 54.4117 27.7833C54.6262 24.4911 57.3123 21.9204 60.5273 21.9204C63.7422 21.9204 66.4285 24.4914 66.6425 27.7739C66.7282 29.2799 66.2708 30.7667 65.3534 31.9641Z" fill="#FDAD3E"/>
<path d="M36.4366 18.105C39.0163 18.105 41.1075 16.0209 41.1075 13.45C41.1075 10.8791 39.0163 8.79492 36.4366 8.79492C33.8569 8.79492 31.7656 10.8791 31.7656 13.45C31.7656 16.0209 33.8569 18.105 36.4366 18.105Z" fill="#FDAD3E"/>
<path d="M36.4742 27.7142L43.1165 18.8604C44.3918 17.1994 45.0287 15.1358 44.9113 13.045C44.7732 10.9062 43.8637 8.8901 42.3517 7.37113C41.5799 6.59913 40.6636 5.98673 39.6552 5.56891C38.6467 5.15109 37.5658 4.93604 36.4742 4.93604C35.3826 4.93604 34.3017 5.15109 33.2933 5.56891C32.2848 5.98673 31.3685 6.59913 30.5968 7.37113C29.0835 8.89182 28.1738 10.9102 28.0367 13.0512C27.904 15.0336 28.5434 17.0988 29.8371 18.8674L36.4742 27.7142ZM36.4364 7.34974C37.6423 7.35291 38.8202 7.71339 39.8212 8.38564C40.8223 9.05789 41.6017 10.0117 42.061 11.1267C42.5203 12.2417 42.6388 13.4678 42.4016 14.6501C42.1644 15.8324 41.5821 16.9179 40.7283 17.7694C39.8745 18.621 38.7875 19.2004 37.6045 19.4344C36.4216 19.6685 35.1958 19.5467 34.0821 19.0845C32.9683 18.6223 32.0165 17.8404 31.3469 16.8375C30.6773 15.8347 30.32 14.6558 30.32 13.45C30.3241 11.8307 30.9702 10.2791 32.1167 9.13552C33.2633 7.99198 34.8165 7.34987 36.4359 7.35003L36.4364 7.34974ZM60.5269 23.3655C57.7856 23.3655 55.9983 25.6542 55.8541 27.8668C55.7978 29.0241 56.1505 30.1644 56.8503 31.0878L60.5269 35.9883L64.2015 31.0902C64.9098 30.1678 65.2636 29.0219 65.1987 27.8607C65.0556 25.6543 63.2682 23.3655 60.5269 23.3655ZM60.35 31.5428C59.6515 31.5412 58.9691 31.3326 58.3891 30.9433C57.809 30.554 57.3574 30.0016 57.0912 29.3557C56.825 28.7099 56.7562 27.9997 56.8935 27.3148C57.0308 26.6298 57.368 26.001 57.8625 25.5076C58.357 25.0143 58.9866 24.6785 59.6719 24.5428C60.3571 24.4072 61.0672 24.4776 61.7124 24.7453C62.3576 25.013 62.909 25.4659 63.2969 26.0469C63.6848 26.6278 63.8919 27.3106 63.8919 28.0092C63.8897 28.9471 63.5156 29.8459 62.8516 30.5083C62.1876 31.1708 61.2879 31.5428 60.35 31.5428Z" fill="#FDAD3E"/>
<path d="M42.5078 22.0808L46.975 24.3948L46.9769 21.8258L43.8965 20.23L42.5078 22.0808Z" fill="#FDAD3E"/>
<path d="M41.0441 45.2038C42.2022 45.2038 43.141 44.2688 43.141 43.1153C43.141 41.9619 42.2022 41.0269 41.0441 41.0269C39.8861 41.0269 38.9473 41.9619 38.9473 43.1153C38.9473 44.2688 39.8861 45.2038 41.0441 45.2038Z" fill="#FDAD3E"/>
<path d="M46.9438 66.4594L26.6588 55.7856L26.6572 58.3636L46.9418 69.0373L46.9438 66.4594Z" fill="#FDAD3E"/>
<path d="M70.6593 11.858C70.3453 11.6624 69.9862 11.5509 69.6166 11.5344C69.247 11.5178 68.8794 11.5967 68.5492 11.7635L48.4222 21.8331L48.4203 24.3857L68.3597 14.4103C68.4699 14.3552 68.5923 14.3291 68.7154 14.3347C68.8385 14.3402 68.9581 14.3771 69.0629 14.4418C69.1677 14.5066 69.2542 14.5971 69.3142 14.7047C69.3742 14.8123 69.4057 14.9334 69.4057 15.0566V55.55C69.4057 55.6842 69.3683 55.8157 69.2978 55.9299C69.2272 56.044 69.1263 56.1363 69.0063 56.1963L48.3892 66.5108L48.3872 69.0635L70.4898 58.0058C70.8506 57.8268 71.1541 57.5503 71.3658 57.2076C71.5775 56.8649 71.689 56.4698 71.6877 56.067V13.7022C71.689 13.3324 71.5951 12.9685 71.415 12.6454C71.2349 12.3224 70.9747 12.0513 70.6593 11.858ZM41.0664 38.4714C38.3252 38.4714 36.5379 40.7601 36.3936 42.9729C36.3371 44.1301 36.6897 45.2703 37.3897 46.1936L41.0664 51.0946L44.7408 46.1965C45.4497 45.2741 45.8038 44.128 45.739 42.9665C45.595 40.7601 43.8076 38.4714 41.0664 38.4714ZM41.0444 46.6489C40.3459 46.6472 39.6635 46.4385 39.0835 46.0492C38.5034 45.6599 38.0518 45.1075 37.7856 44.4616C37.5194 43.8157 37.4507 43.1055 37.588 42.4205C37.7253 41.7356 38.0625 41.1067 38.557 40.6134C39.0516 40.12 39.6812 39.7843 40.3665 39.6486C41.0517 39.5129 41.7618 39.5834 42.4071 39.8511C43.0523 40.1188 43.6037 40.5717 43.9916 41.1527C44.3796 41.7336 44.5866 42.4165 44.5866 43.1151C44.5845 44.0531 44.2103 44.9519 43.5463 45.6144C42.8822 46.2769 41.9824 46.6489 41.0444 46.6489Z" fill="#FDAD3E"/>
<path d="M46.9592 44.9264C46.744 45.7027 46.3816 46.4304 45.8918 47.0699L41.644 52.7327C41.5767 52.8224 41.4894 52.8953 41.3891 52.9454C41.2887 52.9956 41.1781 53.0217 41.0659 53.0217C40.9537 53.0217 40.8431 52.9956 40.7427 52.9454C40.6424 52.8953 40.5551 52.8224 40.4878 52.7327L36.2352 47.0639C35.3294 45.8666 34.8744 44.3885 34.9502 42.8891C35.165 39.5969 37.8511 37.0262 41.0659 37.0262C43.8457 37.0262 46.2287 38.9484 46.9618 41.5906L46.9733 26.022L41.6278 23.253L37.0524 29.3523C36.9851 29.442 36.8978 29.5149 36.7975 29.565C36.6971 29.6152 36.5865 29.6413 36.4743 29.6413C36.3621 29.6413 36.2515 29.6152 36.1511 29.565C36.0508 29.5149 35.9635 29.442 35.8962 29.3523L28.6754 19.7279C27.7593 18.4892 27.1157 17.0706 26.7868 15.5654L26.6823 15.5112L26.6592 54.153L46.9443 64.8267L46.9592 44.9264ZM30.2067 41.8486C30.2067 42.0402 30.1306 42.2241 29.995 42.3596C29.8595 42.4951 29.6757 42.5712 29.484 42.5712C29.2924 42.5712 29.1086 42.4951 28.973 42.3596C28.8375 42.2241 28.7614 42.0402 28.7614 41.8486V28.5517C28.7614 28.36 28.8375 28.1762 28.973 28.0407C29.1086 27.9052 29.2924 27.8291 29.484 27.8291C29.6757 27.8291 29.8595 27.9052 29.995 28.0407C30.1306 28.1762 30.2067 28.36 30.2067 28.5517V41.8486ZM30.2067 24.7939C30.2067 24.9856 30.1306 25.1694 29.995 25.3049C29.8595 25.4404 29.6757 25.5166 29.484 25.5166C29.2924 25.5166 29.1086 25.4404 28.973 25.3049C28.8375 25.1694 28.7614 24.9856 28.7614 24.7939V24.5048C28.7614 24.3132 28.8375 24.1294 28.973 23.9938C29.1086 23.8583 29.2924 23.7822 29.484 23.7822C29.6757 23.7822 29.8595 23.8583 29.995 23.9938C30.1306 24.1294 30.2067 24.3132 30.2067 24.5048V24.7939ZM60.3501 25.9207C59.9375 25.9223 59.5345 26.0462 59.1922 26.2766C58.8498 26.5071 58.5835 26.8338 58.4267 27.2155C58.2699 27.5972 58.2297 28.0169 58.3112 28.4214C58.3927 28.826 58.5922 29.1973 58.8846 29.4886C59.177 29.7798 59.5491 29.9779 59.954 30.0578C60.3589 30.1377 60.7783 30.0959 61.1594 29.9376C61.5406 29.7793 61.8662 29.5116 62.0953 29.1683C62.3244 28.8251 62.4467 28.4217 62.4467 28.009C62.445 27.4542 62.2233 26.9228 61.8302 26.5313C61.4372 26.1398 60.9049 25.9202 60.3501 25.9207Z" fill="#FDAD3E"/>
</svg>
