<svg width="74" height="74" viewBox="0 0 74 74" fill="none" xmlns="http://www.w3.org/2000/svg">
<path d="M36.9998 19.1024C36.68 19.1051 36.3722 18.9809 36.1439 18.757C35.9157 18.5331 35.7856 18.2277 35.7822 17.908V12.5152C35.7822 11.855 36.3268 11.3208 36.9998 11.3208C37.6715 11.3208 38.2173 11.8561 38.2173 12.5152V17.908C38.2173 18.567 37.6715 19.1024 36.9998 19.1024Z" fill="#FDAD3E"/>
<path d="M36.9997 29.0785C34.8017 29.0785 32.7297 27.9511 31.5919 26.137C31.5081 26.0035 31.4518 25.8546 31.4265 25.699C31.4011 25.5434 31.4072 25.3844 31.4444 25.2312C31.4816 25.078 31.5491 24.9339 31.643 24.8072C31.7368 24.6806 31.8551 24.5741 31.9908 24.4939C32.2657 24.3274 32.5949 24.2751 32.9079 24.3484C33.2209 24.4217 33.4927 24.6146 33.6651 24.8859C34.3623 25.9982 35.64 26.6896 36.9997 26.6896C39.1376 26.6896 40.8766 25.035 40.8766 23.0024C40.8766 20.9697 39.1376 19.3151 36.9997 19.3151C36.3279 19.3151 35.7822 18.7797 35.7822 18.1207C35.7822 17.4616 36.3268 16.9263 36.9997 16.9263C40.48 16.9263 43.3105 19.6527 43.3105 23.0035C43.3105 26.3543 40.48 29.0785 36.9997 29.0785Z" fill="#FDAD3E"/>
<path d="M41.5064 13.4611H32.4945C31.9268 13.4611 31.4354 13.076 31.3082 12.5338L28.99 2.61891C28.9067 2.26394 28.9934 1.89162 29.2247 1.60719C29.4559 1.32275 29.8051 1.15625 30.1763 1.15625H43.8246C44.1958 1.15625 44.5461 1.32159 44.7762 1.60719C45.0063 1.89278 45.093 2.26394 45.011 2.61891L42.6927 12.5338C42.6281 12.7993 42.4759 13.0353 42.2606 13.2035C42.0454 13.3718 41.7796 13.4625 41.5064 13.4611ZM54.476 38.606L37.8931 27.4078C37.624 27.2316 37.2965 27.168 36.9811 27.2307C36.6656 27.2934 36.3874 27.4774 36.2061 27.7431C36.1177 27.8735 36.0562 28.0203 36.0255 28.1749C35.9948 28.3294 35.9953 28.4886 36.0271 28.6429C36.0589 28.7973 36.1213 28.9437 36.2106 29.0735C36.3 29.2034 36.4144 29.314 36.5472 29.3988L52.8804 40.4294V43.6068H59.1727V38.606H54.476Z" fill="#FDAD3E"/>
<path d="M38.2376 27.7463C38.0568 27.4806 37.7794 27.296 37.4645 27.2318C37.1496 27.1677 36.8221 27.2291 36.5518 27.4029L19.7931 38.6047H15.0918V43.6054H21.3853V40.4315L37.8884 29.4009C38.4504 29.039 38.6065 28.299 38.2376 27.7463Z" fill="#FDAD3E"/>
<path d="M60.125 44.8003H13.875V48.0112H60.125V44.8003ZM13.875 69.6331H60.125V72.844H13.875V69.6331ZM60.125 50.4H13.875V67.2443H60.125V50.4ZM21.2981 63.9813C21.2981 64.6415 20.7535 65.1757 20.0806 65.1757C19.4077 65.1757 18.8631 64.6404 18.8631 63.9813V53.663C18.8631 53.0027 19.4077 52.4685 20.0806 52.4685C20.7535 52.4685 21.2981 53.0039 21.2981 53.663V63.9813ZM29.7573 63.9813C29.7573 64.6415 29.2127 65.1757 28.5397 65.1757C27.8668 65.1757 27.3222 64.6404 27.3222 63.9813V53.663C27.3222 53.0027 27.8668 52.4685 28.5397 52.4685C29.2127 52.4685 29.7573 53.0039 29.7573 53.663V63.9813ZM38.2175 63.9813C38.2175 64.6415 37.6729 65.1757 37 65.1757C36.6802 65.1785 36.3725 65.0543 36.1442 64.8304C35.9159 64.6064 35.7858 64.3011 35.7825 63.9813V53.663C35.7825 53.0027 36.3271 52.4685 37 52.4685C37.6718 52.4685 38.2175 53.0039 38.2175 53.663V63.9813ZM46.6767 63.9813C46.6767 64.6415 46.1321 65.1757 45.4591 65.1757C44.7862 65.1757 44.2416 64.6404 44.2416 63.9813V53.663C44.2416 53.0027 44.7862 52.4685 45.4591 52.4685C46.1321 52.4685 46.6767 53.0039 46.6767 53.663V63.9813ZM55.1369 63.9813C55.1369 64.6415 54.5923 65.1757 53.9194 65.1757C53.2465 65.1757 52.7019 64.6404 52.7019 63.9813V53.663C52.7019 53.0027 53.2465 52.4685 53.9194 52.4685C54.5923 52.4685 55.1369 53.0039 55.1369 53.663V63.9813Z" fill="#FDAD3E"/>
</svg>
